<svg width="32.000000" height="32.000000" viewBox="0 0 32 32" fill="none" xmlns="http://www.w3.org/2000/svg" xmlns:xlink="http://www.w3.org/1999/xlink">
	<desc>
			Created with Pixso.
	</desc>
	<defs>
		<clipPath id="clip21_96">
			<rect id="fi-sr-star" width="32.000000" height="32.000000" fill="white" fill-opacity="0"/>
		</clipPath>
	</defs>
	<rect id="fi-sr-star" width="32.000000" height="32.000000" fill="#FFFFFF" fill-opacity="0"/>
	<g clip-path="url(#clip21_96)">
		<path id="Vector" d="M1.76 16.53L6.51 20L4.71 25.58C4.42 26.44 4.41 27.38 4.7 28.25C4.98 29.12 5.54 29.87 6.29 30.4C7.02 30.94 7.91 31.23 8.82 31.22C9.74 31.22 10.62 30.92 11.35 30.37L16 26.95L20.64 30.37C21.37 30.91 22.26 31.2 23.17 31.2C24.08 31.21 24.96 30.92 25.7 30.39C26.44 29.86 26.99 29.11 27.28 28.24C27.56 27.38 27.56 26.44 27.28 25.58L25.48 20L30.23 16.53C30.96 15.99 31.5 15.24 31.78 14.38C32.06 13.51 32.06 12.59 31.78 11.72C31.5 10.86 30.95 10.11 30.22 9.58C29.48 9.04 28.6 8.75 27.69 8.75L21.86 8.75L20.09 3.24C19.81 2.37 19.27 1.61 18.53 1.08C17.79 0.54 16.91 0.25 16 0.25C15.08 0.25 14.2 0.54 13.46 1.08C12.72 1.61 12.18 2.37 11.9 3.24L10.13 8.75L4.3 8.75C3.4 8.75 2.51 9.04 1.78 9.58C1.05 10.11 0.5 10.86 0.22 11.72C-0.06 12.59 -0.06 13.51 0.21 14.38C0.49 15.24 1.04 15.99 1.77 16.53L1.76 16.53Z" fill="#FFE03D" fill-opacity="1.000000" fill-rule="nonzero"/>
	</g>
</svg>
