<svg width="131.332520" height="12.984863" viewBox="0 0 131.333 12.9849" fill="none" xmlns="http://www.w3.org/2000/svg" xmlns:xlink="http://www.w3.org/1999/xlink">
	<desc>
			Created with Pixso.
	</desc>
	<defs/>
	<g opacity="0.800000">
		<path id="Over 20,000 Patient" d="M109.63 0.79C109.63 1.23 109.25 1.58 108.8 1.58C108.34 1.58 107.96 1.23 107.96 0.79C107.96 0.35 108.34 0 108.8 0C109.25 0 109.63 0.35 109.63 0.79ZM4.49 0.17C7.09 0.17 8.98 2.18 8.98 5.41C8.98 8.63 7.09 10.64 4.49 10.64C1.89 10.64 3.81e-5 8.63 3.81e-5 5.41C3.81e-5 2.18 1.89 0.17 4.49 0.17ZM42.12 10.5L35.69 10.5L35.69 9.6L39.05 5.92C40.23 4.63 40.78 3.94 40.78 3C40.78 1.92 39.94 1.25 38.84 1.25C37.66 1.25 36.9 2.02 36.9 3.18L35.73 3.18C35.73 1.39 37.09 0.17 38.87 0.17C40.66 0.17 41.94 1.43 41.94 3C41.94 4.13 41.42 5 39.67 6.88L37.38 9.32L37.38 9.4L42.12 9.4L42.12 10.5ZM51.03 5.41C51.03 8.73 49.73 10.64 47.48 10.64C45.24 10.64 43.94 8.73 43.94 5.41C43.94 2.1 45.26 0.17 47.48 0.17C49.71 0.17 51.03 2.1 51.03 5.41ZM62.98 5.41C62.98 8.73 61.68 10.64 59.44 10.64C57.19 10.64 55.9 8.73 55.9 5.41C55.9 2.1 57.21 0.17 59.44 0.17C61.67 0.17 62.98 2.1 62.98 5.41ZM71.73 5.41C71.73 8.73 70.43 10.64 68.19 10.64C65.94 10.64 64.65 8.73 64.65 5.41C64.65 2.1 65.96 0.17 68.19 0.17C70.42 0.17 71.73 2.1 71.73 5.41ZM80.48 5.41C80.48 8.73 79.18 10.64 76.94 10.64C74.69 10.64 73.4 8.73 73.4 5.41C73.4 2.1 74.71 0.17 76.94 0.17C79.17 0.17 80.48 2.1 80.48 5.41ZM87.71 10.5L86.48 10.5L86.48 0.31L89.92 0.31C92.31 0.31 93.38 1.73 93.38 3.54C93.38 5.33 92.31 6.78 89.94 6.78L87.71 6.78L87.71 10.5ZM104.8 2.86L106.43 2.86L106.43 3.85L104.8 3.85L104.8 8.31C104.8 9.3 105.29 9.46 105.81 9.46C106.07 9.46 106.23 9.42 106.33 9.4L106.57 10.45C106.41 10.52 106.13 10.59 105.69 10.59C104.7 10.59 103.62 9.96 103.62 8.63L103.62 3.85L102.47 3.85L102.47 2.86L103.62 2.86L103.62 1.03L104.8 1.03L104.8 2.86ZM129.56 2.86L131.19 2.86L131.19 3.85L129.56 3.85L129.56 8.31C129.56 9.3 130.05 9.46 130.57 9.46C130.83 9.46 130.99 9.42 131.09 9.4L131.33 10.45C131.17 10.52 130.89 10.59 130.45 10.59C129.46 10.59 128.38 9.96 128.38 8.63L128.38 3.85L127.23 3.85L127.23 2.86L128.38 2.86L128.38 1.03L129.56 1.03L129.56 2.86ZM45.14 5.41C45.14 8.05 46 9.54 47.48 9.54C48.96 9.54 49.83 8.05 49.83 5.41C49.83 2.76 48.96 1.25 47.48 1.25C46.01 1.25 45.14 2.76 45.14 5.41ZM57.09 5.41C57.09 8.05 57.96 9.54 59.44 9.54C60.92 9.54 61.78 8.05 61.78 5.41C61.78 2.76 60.91 1.25 59.44 1.25C57.96 1.25 57.09 2.76 57.09 5.41ZM65.84 5.41C65.84 8.05 66.71 9.54 68.19 9.54C69.67 9.54 70.53 8.05 70.53 5.41C70.53 2.76 69.66 1.25 68.19 1.25C66.71 1.25 65.84 2.76 65.84 5.41ZM74.59 5.41C74.59 8.05 75.46 9.54 76.94 9.54C78.42 9.54 79.28 8.05 79.28 5.41C79.28 2.76 78.41 1.25 76.94 1.25C75.46 1.25 74.59 2.76 74.59 5.41ZM4.49 9.48C6.34 9.48 7.79 8.05 7.79 5.41C7.79 2.76 6.34 1.33 4.49 1.33C2.64 1.33 1.19 2.76 1.19 5.41C1.19 8.05 2.64 9.48 4.49 9.48ZM87.71 1.41L87.71 5.68L89.9 5.68C91.54 5.68 92.17 4.76 92.17 3.54C92.17 2.31 91.54 1.41 89.88 1.41L87.71 1.41ZM27.74 10.5L26.56 10.5L26.56 2.86L27.7 2.86L27.7 4.01L27.78 4.01C28.06 3.26 28.85 2.74 29.77 2.74C29.94 2.74 30.25 2.75 30.38 2.76L30.38 3.95C30.3 3.93 29.98 3.87 29.67 3.87C28.55 3.87 27.74 4.63 27.74 5.66L27.74 10.5ZM24.66 8.72C24.3 9.88 23.16 10.66 21.61 10.66C19.41 10.66 18.05 9.08 18.05 6.74C18.05 4.39 19.43 2.76 21.49 2.76C23.08 2.76 24.77 3.73 24.77 6.58L24.77 7.07L19.23 7.07C19.29 8.71 20.24 9.6 21.61 9.6C22.53 9.6 23.22 9.2 23.52 8.41L24.66 8.72ZM99.73 9.46C99.49 9.96 98.79 10.67 97.46 10.67C96.01 10.67 94.85 9.82 94.85 8.33C94.85 6.58 96.4 6.26 97.82 6.08C99.21 5.9 99.78 5.95 99.78 5.39L99.78 5.34C99.78 4.37 99.26 3.79 98.17 3.79C97.06 3.79 96.45 4.39 96.19 4.95L95.07 4.55C95.67 3.16 96.98 2.76 98.13 2.76C99.11 2.76 100.96 3.04 100.96 5.46L100.96 10.5L99.78 10.5L99.78 9.46L99.73 9.46ZM117.76 8.72C117.4 9.88 116.27 10.66 114.72 10.66C112.51 10.66 111.16 9.08 111.16 6.74C111.16 4.39 112.53 2.76 114.6 2.76C116.19 2.76 117.88 3.73 117.88 6.58L117.88 7.07L112.34 7.07C112.39 8.71 113.34 9.6 114.72 9.6C115.64 9.6 116.33 9.2 116.63 8.41L117.76 8.72ZM122.8 3.81C121.67 3.81 120.84 4.57 120.84 5.9L120.84 10.5L119.67 10.5L119.67 2.86L120.81 2.86L120.81 4.05L120.91 4.05C121.27 3.28 121.98 2.76 123.13 2.76C124.68 2.76 125.72 3.69 125.72 5.64L125.72 10.5L124.55 10.5L124.55 5.72C124.55 4.52 123.88 3.81 122.8 3.81ZM15.87 2.86L17.14 2.86L14.31 10.5L13.12 10.5L10.3 2.86L11.57 2.86L13.68 8.94L13.76 8.94L15.87 2.86ZM109.37 10.5L108.2 10.5L108.2 2.86L109.37 2.86L109.37 10.5ZM21.49 3.81C20.15 3.81 19.31 4.87 19.23 6.06L23.58 6.06C23.58 4.77 22.76 3.81 21.49 3.81ZM114.6 3.81C113.26 3.81 112.42 4.87 112.34 6.06L116.69 6.06C116.69 4.77 115.87 3.81 114.6 3.81ZM96.03 8.39C96.03 9.2 96.71 9.62 97.64 9.62C99.03 9.62 99.78 8.69 99.78 7.73L99.78 6.66C99.59 6.9 98.25 7.04 97.76 7.09C96.84 7.21 96.03 7.49 96.03 8.39ZM53.05 9.1L54.33 9.1L54.25 9.64C54.08 10.77 53.57 12.3 53.33 12.98L52.44 12.98C52.57 12.35 52.85 11.01 52.99 9.66L53.05 9.1Z" fill="#020043" fill-opacity="1.000000" fill-rule="evenodd"/>
	</g>
</svg>
